<mxfile host="app.diagrams.net" agent="Mozilla/5.0 (Macintosh; Intel Mac OS X 10_15_7) AppleWebKit/537.36 (KHTML, like Gecko) Chrome/126.0.0.0 Safari/537.36" version="24.7.6">
  <diagram name="Page-1" id="EzidtO3Hb19t3wDcSpyZ">
    <mxGraphModel dx="1522" dy="804" grid="1" gridSize="10" guides="1" tooltips="1" connect="1" arrows="1" fold="1" page="1" pageScale="1" pageWidth="827" pageHeight="1169" math="0" shadow="0">
      <root>
        <mxCell id="0" />
        <mxCell id="1" parent="0" />
        <mxCell id="i67tSVPoHM7ITiix1ZI--3" value="" style="edgeStyle=orthogonalEdgeStyle;rounded=0;orthogonalLoop=1;jettySize=auto;html=1;" edge="1" parent="1" source="i67tSVPoHM7ITiix1ZI--1" target="i67tSVPoHM7ITiix1ZI--2">
          <mxGeometry relative="1" as="geometry" />
        </mxCell>
        <mxCell id="i67tSVPoHM7ITiix1ZI--5" style="edgeStyle=orthogonalEdgeStyle;rounded=0;orthogonalLoop=1;jettySize=auto;html=1;entryX=0;entryY=0.5;entryDx=0;entryDy=0;" edge="1" parent="1" source="i67tSVPoHM7ITiix1ZI--1" target="i67tSVPoHM7ITiix1ZI--4">
          <mxGeometry relative="1" as="geometry" />
        </mxCell>
        <mxCell id="i67tSVPoHM7ITiix1ZI--9" style="edgeStyle=orthogonalEdgeStyle;rounded=0;orthogonalLoop=1;jettySize=auto;html=1;entryX=0;entryY=0.75;entryDx=0;entryDy=0;" edge="1" parent="1" source="i67tSVPoHM7ITiix1ZI--1" target="i67tSVPoHM7ITiix1ZI--8">
          <mxGeometry relative="1" as="geometry" />
        </mxCell>
        <mxCell id="i67tSVPoHM7ITiix1ZI--13" style="edgeStyle=orthogonalEdgeStyle;rounded=0;orthogonalLoop=1;jettySize=auto;html=1;entryX=0;entryY=0.75;entryDx=0;entryDy=0;" edge="1" parent="1" source="i67tSVPoHM7ITiix1ZI--1" target="i67tSVPoHM7ITiix1ZI--12">
          <mxGeometry relative="1" as="geometry" />
        </mxCell>
        <mxCell id="i67tSVPoHM7ITiix1ZI--18" style="edgeStyle=orthogonalEdgeStyle;rounded=0;orthogonalLoop=1;jettySize=auto;html=1;entryX=0;entryY=0.5;entryDx=0;entryDy=0;" edge="1" parent="1" source="i67tSVPoHM7ITiix1ZI--1" target="i67tSVPoHM7ITiix1ZI--17">
          <mxGeometry relative="1" as="geometry">
            <Array as="points">
              <mxPoint x="295" y="200" />
              <mxPoint x="295" y="540" />
            </Array>
          </mxGeometry>
        </mxCell>
        <mxCell id="i67tSVPoHM7ITiix1ZI--21" style="edgeStyle=orthogonalEdgeStyle;rounded=0;orthogonalLoop=1;jettySize=auto;html=1;entryX=0;entryY=0.5;entryDx=0;entryDy=0;" edge="1" parent="1" source="i67tSVPoHM7ITiix1ZI--1" target="i67tSVPoHM7ITiix1ZI--20">
          <mxGeometry relative="1" as="geometry" />
        </mxCell>
        <mxCell id="i67tSVPoHM7ITiix1ZI--25" style="edgeStyle=orthogonalEdgeStyle;rounded=0;orthogonalLoop=1;jettySize=auto;html=1;entryX=0;entryY=0.75;entryDx=0;entryDy=0;" edge="1" parent="1" source="i67tSVPoHM7ITiix1ZI--1" target="i67tSVPoHM7ITiix1ZI--24">
          <mxGeometry relative="1" as="geometry" />
        </mxCell>
        <mxCell id="i67tSVPoHM7ITiix1ZI--36" style="edgeStyle=orthogonalEdgeStyle;rounded=0;orthogonalLoop=1;jettySize=auto;html=1;entryX=0;entryY=0.75;entryDx=0;entryDy=0;" edge="1" parent="1" source="i67tSVPoHM7ITiix1ZI--1" target="i67tSVPoHM7ITiix1ZI--35">
          <mxGeometry relative="1" as="geometry" />
        </mxCell>
        <mxCell id="i67tSVPoHM7ITiix1ZI--38" style="edgeStyle=orthogonalEdgeStyle;rounded=0;orthogonalLoop=1;jettySize=auto;html=1;entryX=0;entryY=0.5;entryDx=0;entryDy=0;" edge="1" parent="1" source="i67tSVPoHM7ITiix1ZI--1" target="i67tSVPoHM7ITiix1ZI--37">
          <mxGeometry relative="1" as="geometry" />
        </mxCell>
        <mxCell id="i67tSVPoHM7ITiix1ZI--1" value="对象" style="rounded=1;whiteSpace=wrap;html=1;" vertex="1" parent="1">
          <mxGeometry x="150" y="170" width="90" height="60" as="geometry" />
        </mxCell>
        <mxCell id="i67tSVPoHM7ITiix1ZI--2" value="spec 对象规约" style="rounded=1;whiteSpace=wrap;html=1;" vertex="1" parent="1">
          <mxGeometry x="350" y="120" width="120" height="60" as="geometry" />
        </mxCell>
        <mxCell id="i67tSVPoHM7ITiix1ZI--4" value="status 状态" style="rounded=1;whiteSpace=wrap;html=1;" vertex="1" parent="1">
          <mxGeometry x="354" y="250" width="120" height="60" as="geometry" />
        </mxCell>
        <mxCell id="i67tSVPoHM7ITiix1ZI--6" value="你所期望的状态" style="text;html=1;align=center;verticalAlign=middle;resizable=0;points=[];autosize=1;strokeColor=none;fillColor=none;" vertex="1" parent="1">
          <mxGeometry x="359" y="180" width="110" height="30" as="geometry" />
        </mxCell>
        <mxCell id="i67tSVPoHM7ITiix1ZI--11" value="" style="edgeStyle=orthogonalEdgeStyle;rounded=0;orthogonalLoop=1;jettySize=auto;html=1;" edge="1" parent="1" source="i67tSVPoHM7ITiix1ZI--8" target="i67tSVPoHM7ITiix1ZI--10">
          <mxGeometry relative="1" as="geometry" />
        </mxCell>
        <mxCell id="i67tSVPoHM7ITiix1ZI--8" value="对象清单" style="rounded=1;whiteSpace=wrap;html=1;" vertex="1" parent="1">
          <mxGeometry x="350" y="340" width="120" height="60" as="geometry" />
        </mxCell>
        <mxCell id="i67tSVPoHM7ITiix1ZI--10" value="apiVersion&lt;div&gt;Kind&lt;/div&gt;&lt;div&gt;metadata.(name, namespace)&lt;/div&gt;&lt;div&gt;spec&lt;/div&gt;&lt;div&gt;&lt;br&gt;&lt;/div&gt;" style="rounded=1;whiteSpace=wrap;html=1;" vertex="1" parent="1">
          <mxGeometry x="560" y="350" width="120" height="60" as="geometry" />
        </mxCell>
        <mxCell id="i67tSVPoHM7ITiix1ZI--15" value="" style="edgeStyle=orthogonalEdgeStyle;rounded=0;orthogonalLoop=1;jettySize=auto;html=1;" edge="1" parent="1" source="i67tSVPoHM7ITiix1ZI--12" target="i67tSVPoHM7ITiix1ZI--14">
          <mxGeometry relative="1" as="geometry" />
        </mxCell>
        <mxCell id="i67tSVPoHM7ITiix1ZI--12" value="管理" style="rounded=1;whiteSpace=wrap;html=1;" vertex="1" parent="1">
          <mxGeometry x="349" y="420" width="120" height="60" as="geometry" />
        </mxCell>
        <mxCell id="i67tSVPoHM7ITiix1ZI--14" value="1.指令式&lt;div&gt;2.指令配置&lt;/div&gt;&lt;div&gt;3.声明式配置&lt;/div&gt;" style="rounded=1;whiteSpace=wrap;html=1;" vertex="1" parent="1">
          <mxGeometry x="549" y="420" width="120" height="60" as="geometry" />
        </mxCell>
        <mxCell id="i67tSVPoHM7ITiix1ZI--17" value="对象名称和ID" style="rounded=1;whiteSpace=wrap;html=1;" vertex="1" parent="1">
          <mxGeometry x="340" y="510" width="120" height="60" as="geometry" />
        </mxCell>
        <mxCell id="i67tSVPoHM7ITiix1ZI--23" value="" style="edgeStyle=orthogonalEdgeStyle;rounded=0;orthogonalLoop=1;jettySize=auto;html=1;" edge="1" parent="1" source="i67tSVPoHM7ITiix1ZI--20" target="i67tSVPoHM7ITiix1ZI--22">
          <mxGeometry relative="1" as="geometry" />
        </mxCell>
        <mxCell id="i67tSVPoHM7ITiix1ZI--20" value="标签和选择符&lt;div&gt;label&lt;/div&gt;&lt;div&gt;selectors&lt;/div&gt;" style="rounded=1;whiteSpace=wrap;html=1;" vertex="1" parent="1">
          <mxGeometry x="349" y="590" width="120" height="60" as="geometry" />
        </mxCell>
        <mxCell id="i67tSVPoHM7ITiix1ZI--22" value="标签可以在任何纬度对资源进行切片" style="rounded=1;whiteSpace=wrap;html=1;" vertex="1" parent="1">
          <mxGeometry x="540" y="585" width="120" height="65" as="geometry" />
        </mxCell>
        <mxCell id="i67tSVPoHM7ITiix1ZI--27" value="" style="edgeStyle=orthogonalEdgeStyle;rounded=0;orthogonalLoop=1;jettySize=auto;html=1;" edge="1" parent="1" source="i67tSVPoHM7ITiix1ZI--24" target="i67tSVPoHM7ITiix1ZI--26">
          <mxGeometry relative="1" as="geometry" />
        </mxCell>
        <mxCell id="i67tSVPoHM7ITiix1ZI--24" value="命名空间&lt;div&gt;namespace&lt;/div&gt;" style="rounded=1;whiteSpace=wrap;html=1;" vertex="1" parent="1">
          <mxGeometry x="354" y="680" width="120" height="60" as="geometry" />
        </mxCell>
        <mxCell id="i67tSVPoHM7ITiix1ZI--29" value="" style="edgeStyle=orthogonalEdgeStyle;rounded=0;orthogonalLoop=1;jettySize=auto;html=1;" edge="1" parent="1">
          <mxGeometry relative="1" as="geometry">
            <mxPoint x="630" y="710" as="sourcePoint" />
            <mxPoint x="760" y="610" as="targetPoint" />
          </mxGeometry>
        </mxCell>
        <mxCell id="i67tSVPoHM7ITiix1ZI--31" style="edgeStyle=orthogonalEdgeStyle;rounded=0;orthogonalLoop=1;jettySize=auto;html=1;entryX=0;entryY=0.5;entryDx=0;entryDy=0;" edge="1" parent="1" source="i67tSVPoHM7ITiix1ZI--26" target="i67tSVPoHM7ITiix1ZI--32">
          <mxGeometry relative="1" as="geometry">
            <mxPoint x="760" y="720" as="targetPoint" />
            <Array as="points">
              <mxPoint x="724" y="710" />
              <mxPoint x="724" y="721" />
            </Array>
          </mxGeometry>
        </mxCell>
        <mxCell id="i67tSVPoHM7ITiix1ZI--26" value="&lt;span style=&quot;color: rgb(34, 34, 34); font-family: &amp;quot;open sans&amp;quot;, -apple-system, &amp;quot;system-ui&amp;quot;, &amp;quot;segoe ui&amp;quot;, Roboto, &amp;quot;helvetica neue&amp;quot;, Arial, sans-serif, &amp;quot;apple color emoji&amp;quot;, &amp;quot;segoe ui emoji&amp;quot;, &amp;quot;segoe ui symbol&amp;quot;; font-size: 16px; text-align: left; background-color: rgb(255, 255, 255);&quot;&gt;&amp;nbsp;提供一种机制，将同一集群中的资源划分为相互隔离的组&lt;/span&gt;" style="rounded=1;whiteSpace=wrap;html=1;" vertex="1" parent="1">
          <mxGeometry x="512.5" y="680" width="175" height="60" as="geometry" />
        </mxCell>
        <mxCell id="i67tSVPoHM7ITiix1ZI--28" value="deployment&lt;div&gt;service&lt;/div&gt;&lt;div&gt;&lt;br&gt;&lt;/div&gt;&lt;div&gt;集群范围的对象不适用&lt;/div&gt;" style="whiteSpace=wrap;html=1;rounded=1;" vertex="1" parent="1">
          <mxGeometry x="750" y="530" width="135" height="80" as="geometry" />
        </mxCell>
        <mxCell id="i67tSVPoHM7ITiix1ZI--32" value="default&lt;div&gt;kube-node-lease（检测节点故障）&lt;/div&gt;&lt;div&gt;kube-public(整个集群可见的资源)&lt;/div&gt;&lt;div&gt;kube-system(k8s 系统创建的对象）&lt;/div&gt;" style="whiteSpace=wrap;html=1;" vertex="1" parent="1">
          <mxGeometry x="770" y="690" width="190" height="100" as="geometry" />
        </mxCell>
        <mxCell id="i67tSVPoHM7ITiix1ZI--35" value="annotations&lt;div&gt;注解&lt;/div&gt;" style="rounded=1;whiteSpace=wrap;html=1;" vertex="1" parent="1">
          <mxGeometry x="359" y="780" width="120" height="60" as="geometry" />
        </mxCell>
        <mxCell id="i67tSVPoHM7ITiix1ZI--37" value="字段选择器" style="rounded=1;whiteSpace=wrap;html=1;" vertex="1" parent="1">
          <mxGeometry x="354" y="860" width="120" height="60" as="geometry" />
        </mxCell>
      </root>
    </mxGraphModel>
  </diagram>
</mxfile>
